<!DOCTYPE svg PUBLIC "-//W3C//DTD SVG 1.1//EN" "http://www.w3.org/Graphics/SVG/1.1/DTD/svg11.dtd">
<svg xmlns="http://www.w3.org/2000/svg" xmlns:xlink="http://www.w3.org/1999/xlink" xmlns:xml="http://www.w3.org/XML/1998/namespace" version="1.1" x="0" y="0" width="300" height="300" overflow="inherit" preserveAspectRatio="xMidYMid" font-size="none" xml:space="default" xml="http://www.w3.org/XML/1998/namespace" ls="http://www.smart-software.at" isIconSupported="true" isSloganSupported="true" isSloganRequired="false" conditionExpression="">
  <rect x="0" y="0" width="300" height="300" id="background" xml:space="default" style="fill:#73AD59;" />
  <g xml:space="default" dynamic="true" exec="@Code.DisableStrokeAlternateStyle(p);">
    <title xml:space="default">Layer 1</title>
    <g id="text1" xml:space="default">
      <path d="M57 172.7575 L60.24006 172.7575 L60.24006 184.7148 L64.40584 184.7148 L70.23022 175.3418 C70.59023 174.7247 71.05309 174.2232 71.61881 173.8375 L71.61881 173.8375 L72.35168 173.3361 C72.76312 173.0532 73.05241 172.8861 73.21956 172.8346 L73.21956 172.8346 C73.3867 172.7832 73.70171 172.7575 74.16457 172.7575 L74.16457 172.7575 L75.01316 172.7575 L75.01316 174.2618 C75.01316 174.8533 74.97459 175.2261 74.89745 175.3804 L74.89745 175.3804 C74.8203 175.5347 74.55029 175.7404 74.08743 175.9976 L74.08743 175.9976 L73.66314 176.229 C73.2517 176.4604 72.9817 176.6404 72.85312 176.769 L72.85312 176.769 C72.72455 176.8976 72.51883 177.1804 72.23597 177.6176 L72.23597 177.6176 L67.60732 185.1006 C67.2216 185.7434 66.90016 186.0649 66.64302 186.0649 L66.64302 186.0649 L66.64302 186.2192 C66.90016 186.2192 67.2216 186.5277 67.60732 187.1449 L67.60732 187.1449 L72.50597 194.8979 C72.76312 195.335 72.96241 195.6179 73.10384 195.7465 L73.10384 195.7465 C73.24527 195.875 73.52171 196.055 73.93314 196.2865 L73.93314 196.2865 L74.35744 196.5179 C74.8203 196.7751 75.0903 196.9808 75.16745 197.1351 L75.16745 197.1351 C75.24459 197.2893 75.28316 197.6622 75.28316 198.2536 L75.28316 198.2536 L75.28316 199.758 L74.20315 199.758 C73.74028 199.758 73.42528 199.7322 73.25813 199.6808 L73.25813 199.6808 C73.09098 199.6294 72.80169 199.4622 72.39026 199.1794 L72.39026 199.1794 L71.65739 198.6779 C71.27167 198.3951 71.01452 198.1829 70.88595 198.0415 L70.88595 198.0415 C70.75737 197.9001 70.55165 197.5979 70.26879 197.1351 L70.26879 197.1351 L64.25155 187.4149 L60.24006 187.4149 L60.24006 199.758 L57 199.758 L57 172.7575 M85.04733 180.4719 L91.79744 180.4719 C92.4146 180.4719 93.03175 180.7291 93.6489 181.2434 L93.6489 181.2434 L94.57463 182.0148 C95.19178 182.5291 95.50036 183.172 95.50036 183.9434 L95.50036 183.9434 L95.50036 199.758 L92.26031 199.758 L92.26031 184.7534 C92.26031 184.3677 92.24102 184.117 92.20245 184.0013 L92.20245 184.0013 C92.16387 183.8855 92.02887 183.7377 91.79744 183.5577 L91.79744 183.5577 C91.56601 183.3777 91.386 183.2684 91.25743 183.2298 L91.25743 183.2298 C91.12886 183.1912 90.83314 183.172 90.37027 183.172 L90.37027 183.172 L85.43304 183.172 C84.94447 183.172 84.61661 183.1977 84.44946 183.2491 L84.44946 183.2491 C84.28231 183.3005 83.96731 183.4677 83.50444 183.7505 L83.50444 183.7505 C83.04158 184.0334 82.77158 184.2391 82.69443 184.3677 L82.69443 184.3677 C82.61728 184.4963 82.57871 184.7534 82.57871 185.1391 L82.57871 185.1391 L82.57871 199.758 L79.33865 199.758 L79.33865 171.2146 L82.57871 171.2146 L82.57871 182.2848 L82.733 182.2848 C82.733 182.0534 83.01586 181.6934 83.58159 181.2048 L83.58159 181.2048 C84.14731 180.7162 84.63589 180.4719 85.04733 180.4719 C85.04733 180.4719 85.04733 180.4719 85.04733 180.4719 L85.04733 180.4719 L85.04733 180.4719 M113.7088 198.2151 L113.5545 198.2151 C113.5545 198.5237 113.2716 198.8451 112.7059 199.1794 L112.7059 199.1794 C112.243 199.4622 111.9281 199.6294 111.7609 199.6808 L111.7609 199.6808 C111.5938 199.7322 111.2788 199.758 110.8159 199.758 L110.8159 199.758 L104.2201 199.758 C103.6029 199.758 102.9858 199.5008 102.3686 198.9865 L102.3686 198.9865 L101.4429 198.2151 C100.8257 197.7008 100.5171 197.0579 100.5171 196.2865 L100.5171 196.2865 L100.5171 191.6578 C100.5171 190.8864 100.8257 190.2435 101.4429 189.7292 L101.4429 189.7292 L102.3686 188.9578 C102.9858 188.4435 103.6029 188.1863 104.2201 188.1863 L104.2201 188.1863 L111.1245 188.1863 C111.613 188.1863 111.9216 188.2056 112.0502 188.2442 L112.0502 188.2442 C112.1788 188.2828 112.3459 188.392 112.5516 188.5721 L112.5516 188.5721 C112.8602 188.8292 113.0145 189.0863 113.0145 189.3435 L113.0145 189.3435 L113.1688 189.3435 L113.1688 184.7534 C113.1688 184.3677 113.1495 184.117 113.1109 184.0013 L113.1109 184.0013 C113.0723 183.8855 112.9374 183.7377 112.7059 183.5577 L112.7059 183.5577 C112.4745 183.3777 112.2945 183.2684 112.1659 183.2298 L112.1659 183.2298 C112.0373 183.1912 111.7416 183.172 111.2788 183.172 L111.2788 183.172 L105.0301 183.172 C104.5672 183.172 104.2522 183.2041 104.0851 183.2684 L104.0851 183.2684 C103.9179 183.3327 103.6029 183.5577 103.14 183.9434 L103.14 183.9434 L100.8257 182.0148 L101.7514 181.2434 C102.2143 180.8576 102.5293 180.6326 102.6965 180.5683 L102.6965 180.5683 C102.8636 180.5041 103.1786 180.4719 103.6415 180.4719 L103.6415 180.4719 L112.7059 180.4719 C113.3231 180.4719 113.9402 180.7291 114.5574 181.2434 L114.5574 181.2434 L115.4831 182.0148 C116.1003 182.5291 116.4088 183.172 116.4088 183.9434 L116.4088 183.9434 L116.4088 195.4765 C116.4088 195.8622 116.4281 196.1129 116.4667 196.2286 L116.4667 196.2286 C116.5053 196.3443 116.6403 196.4922 116.8717 196.6722 L116.8717 196.6722 C117.1031 196.8522 117.2381 197.0001 117.2767 197.1158 L117.2767 197.1158 C117.3153 197.2315 117.3346 197.4822 117.3346 197.8679 L117.3346 197.8679 L117.3346 199.758 L115.9846 199.758 C115.5217 199.758 115.2067 199.7258 115.0395 199.6615 L115.0395 199.6615 C114.8724 199.5972 114.6345 199.4365 114.326 199.1794 L114.326 199.1794 C113.9145 198.8451 113.7088 198.5237 113.7088 198.2151 C113.7088 198.2151 113.7088 198.2151 113.7088 198.2151 L113.7088 198.2151 L113.7088 198.2151 M103.7572 192.4678 L103.7572 195.4765 C103.7572 195.8622 103.7765 196.1129 103.8151 196.2286 L103.8151 196.2286 C103.8536 196.3443 103.9886 196.4922 104.2201 196.6722 L104.2201 196.6722 C104.4515 196.8522 104.6315 196.9615 104.7601 197.0001 L104.7601 197.0001 C104.8886 197.0386 105.1844 197.0579 105.6472 197.0579 L105.6472 197.0579 L110.353 197.0579 C110.8159 197.0579 111.1309 197.0322 111.298 196.9808 L111.298 196.9808 C111.4652 196.9293 111.7802 196.7622 112.243 196.4793 L112.243 196.4793 C112.7059 196.1965 112.9759 195.9908 113.0531 195.8622 L113.0531 195.8622 C113.1302 195.7336 113.1688 195.4765 113.1688 195.0907 L113.1688 195.0907 L113.1688 192.4678 C113.1688 192.0821 113.1495 191.8314 113.1109 191.7157 L113.1109 191.7157 C113.0723 191.6 112.9374 191.4521 112.7059 191.2721 L112.7059 191.2721 C112.4745 191.0921 112.2945 190.9828 112.1659 190.9442 L112.1659 190.9442 C112.0373 190.9057 111.7416 190.8864 111.2788 190.8864 L111.2788 190.8864 L105.6472 190.8864 C105.1844 190.8864 104.8886 190.9057 104.7601 190.9442 L104.7601 190.9442 C104.6315 190.9828 104.4515 191.0921 104.2201 191.2721 L104.2201 191.2721 C103.9886 191.4521 103.8536 191.6 103.8151 191.7157 L103.8151 191.7157 C103.7765 191.8314 103.7572 192.0821 103.7572 192.4678 C103.7572 192.4678 103.7572 192.4678 103.7572 192.4678 L103.7572 192.4678 L103.7572 192.4678 M121.9601 180.4719 L123.3101 180.4719 C123.7729 180.4719 124.088 180.5041 124.2551 180.5683 L124.2551 180.5683 C124.4222 180.6326 124.6601 180.7934 124.9687 181.0505 L124.9687 181.0505 C125.3801 181.3848 125.5858 181.7062 125.5858 182.0148 L125.5858 182.0148 L125.7401 182.0148 C125.7401 181.7062 126.023 181.3848 126.5887 181.0505 L126.5887 181.0505 C127.0516 180.7676 127.3666 180.6005 127.5337 180.5491 L127.5337 180.5491 C127.7009 180.4976 128.0159 180.4719 128.4787 180.4719 L128.4787 180.4719 L135.306 180.4719 C135.9232 180.4719 136.5403 180.7291 137.1575 181.2434 L137.1575 181.2434 L138.0832 182.0148 C138.7003 182.5291 139.0089 183.172 139.0089 183.9434 L139.0089 183.9434 L139.0089 199.758 L135.7689 199.758 L135.7689 184.7534 C135.7689 184.3677 135.7496 184.117 135.711 184.0013 L135.711 184.0013 C135.6724 183.8855 135.5374 183.7377 135.306 183.5577 L135.306 183.5577 C135.0746 183.3777 134.8946 183.2684 134.766 183.2298 L134.766 183.2298 C134.6374 183.1912 134.3417 183.172 133.8788 183.172 L133.8788 183.172 L128.9416 183.172 C128.4787 183.172 128.1637 183.1977 127.9966 183.2491 L127.9966 183.2491 C127.8294 183.3005 127.5144 183.4677 127.0516 183.7505 L127.0516 183.7505 C126.5887 184.0334 126.3187 184.2391 126.2416 184.3677 L126.2416 184.3677 C126.1644 184.4963 126.1258 184.7534 126.1258 185.1391 L126.1258 185.1391 L126.1258 199.758 L122.8858 199.758 L122.8858 184.7534 C122.8858 184.3677 122.8665 184.117 122.8279 184.0013 L122.8279 184.0013 C122.7894 183.8855 122.6544 183.7377 122.4229 183.5577 L122.4229 183.5577 C122.1915 183.3777 122.0565 183.2298 122.0179 183.1141 L122.0179 183.1141 C121.9793 182.9984 121.9601 182.7477 121.9601 182.3619 C121.9601 182.3619 121.9601 182.3619 121.9601 180.4719 L121.9601 182.3619 L121.9601 180.4719 M147.0324 199.758 L143.7923 199.758 L143.7923 180.4719 L147.0324 180.4719 L147.0324 199.758 M147.3795 174.4547 L147.3795 174.7632 C147.3795 175.2518 147.3602 175.5604 147.3217 175.689 L147.3217 175.689 C147.2831 175.8176 147.1609 175.9718 146.9552 176.1518 L146.9552 176.1518 C146.7495 176.3576 146.2738 176.4604 145.528 176.4604 L145.528 176.4604 L145.3352 176.4604 C144.7695 176.4604 144.4223 176.4476 144.2937 176.4218 L144.2937 176.4218 C144.1652 176.3961 144.0109 176.3061 143.8309 176.1518 L143.8309 176.1518 C143.6509 175.9718 143.5416 175.8176 143.503 175.689 L143.503 175.689 C143.4644 175.5604 143.4452 175.2518 143.4452 174.7632 L143.4452 174.7632 L143.4452 174.4547 C143.4452 173.9661 143.4644 173.6575 143.503 173.5289 L143.503 173.5289 C143.5416 173.4004 143.6637 173.2461 143.8694 173.0661 L143.8694 173.0661 C144.0237 172.9118 144.1652 172.8218 144.2937 172.7961 L144.2937 172.7961 C144.4223 172.7704 144.7695 172.7575 145.3352 172.7575 L145.3352 172.7575 L145.4895 172.7575 C146.2609 172.7575 146.7624 172.8604 146.9938 173.0661 L146.9938 173.0661 C147.1738 173.2461 147.2831 173.4004 147.3217 173.5289 L147.3217 173.5289 C147.3602 173.6575 147.3795 173.9661 147.3795 174.4547 C147.3795 174.4547 147.3795 174.4547 147.3795 174.4547 L147.3795 174.4547 L147.3795 174.4547 M157.5206 180.4719 L164.2708 180.4719 C164.8879 180.4719 165.5051 180.7291 166.1222 181.2434 L166.1222 181.2434 L167.048 182.0148 C167.6651 182.5291 167.9737 183.172 167.9737 183.9434 L167.9737 183.9434 L167.9737 199.758 L164.7336 199.758 L164.7336 184.7534 C164.7336 184.3677 164.7143 184.117 164.6758 184.0013 L164.6758 184.0013 C164.6372 183.8855 164.5022 183.7377 164.2708 183.5577 L164.2708 183.5577 C164.0393 183.3777 163.8593 183.2684 163.7308 183.2298 L163.7308 183.2298 C163.6022 183.1912 163.3065 183.172 162.8436 183.172 L162.8436 183.172 L157.9064 183.172 C157.4178 183.172 157.0899 183.1977 156.9228 183.2491 L156.9228 183.2491 C156.7556 183.3005 156.4406 183.4677 155.9778 183.7505 L155.9778 183.7505 C155.5149 184.0334 155.2449 184.2391 155.1678 184.3677 L155.1678 184.3677 C155.0906 184.4963 155.052 184.7534 155.052 185.1391 L155.052 185.1391 L155.052 199.758 L151.812 199.758 L151.812 171.2146 L155.052 171.2146 L155.052 182.2848 L155.2063 182.2848 C155.2063 182.0534 155.4892 181.6934 156.0549 181.2048 L156.0549 181.2048 C156.6206 180.7162 157.1092 180.4719 157.5206 180.4719 C157.5206 180.4719 157.5206 180.4719 157.5206 180.4719 L157.5206 180.4719 L157.5206 180.4719 M186.1821 198.2151 L186.0278 198.2151 C186.0278 198.5237 185.745 198.8451 185.1792 199.1794 L185.1792 199.1794 C184.7164 199.4622 184.4014 199.6294 184.2342 199.6808 L184.2342 199.6808 C184.0671 199.7322 183.7521 199.758 183.2892 199.758 L183.2892 199.758 L176.6934 199.758 C176.0762 199.758 175.4591 199.5008 174.8419 198.9865 L174.8419 198.9865 L173.9162 198.2151 C173.299 197.7008 172.9905 197.0579 172.9905 196.2865 L172.9905 196.2865 L172.9905 191.6578 C172.9905 190.8864 173.299 190.2435 173.9162 189.7292 L173.9162 189.7292 L174.8419 188.9578 C175.4591 188.4435 176.0762 188.1863 176.6934 188.1863 L176.6934 188.1863 L183.5978 188.1863 C184.0864 188.1863 184.3949 188.2056 184.5235 188.2442 L184.5235 188.2442 C184.6521 188.2828 184.8192 188.392 185.025 188.5721 L185.025 188.5721 C185.3335 188.8292 185.4878 189.0863 185.4878 189.3435 L185.4878 189.3435 L185.6421 189.3435 L185.6421 184.7534 C185.6421 184.3677 185.6228 184.117 185.5842 184.0013 L185.5842 184.0013 C185.5457 183.8855 185.4107 183.7377 185.1792 183.5577 L185.1792 183.5577 C184.9478 183.3777 184.7678 183.2684 184.6392 183.2298 L184.6392 183.2298 C184.5107 183.1912 184.2149 183.172 183.7521 183.172 L183.7521 183.172 L177.5034 183.172 C177.0405 183.172 176.7255 183.2041 176.5584 183.2684 L176.5584 183.2684 C176.3912 183.3327 176.0762 183.5577 175.6134 183.9434 L175.6134 183.9434 L173.299 182.0148 L174.2248 181.2434 C174.6876 180.8576 175.0027 180.6326 175.1698 180.5683 L175.1698 180.5683 C175.3369 180.5041 175.6519 180.4719 176.1148 180.4719 L176.1148 180.4719 L185.1792 180.4719 C185.7964 180.4719 186.4136 180.7291 187.0307 181.2434 L187.0307 181.2434 L187.9564 182.0148 C188.5736 182.5291 188.8822 183.172 188.8822 183.9434 L188.8822 183.9434 L188.8822 195.4765 C188.8822 195.8622 188.9015 196.1129 188.94 196.2286 L188.94 196.2286 C188.9786 196.3443 189.1136 196.4922 189.345 196.6722 L189.345 196.6722 C189.5765 196.8522 189.7115 197.0001 189.75 197.1158 L189.75 197.1158 C189.7886 197.2315 189.8079 197.4822 189.8079 197.8679 L189.8079 197.8679 L189.8079 199.758 L188.4579 199.758 C187.995 199.758 187.68 199.7258 187.5129 199.6615 L187.5129 199.6615 C187.3457 199.5972 187.1078 199.4365 186.7993 199.1794 L186.7993 199.1794 C186.3878 198.8451 186.1821 198.5237 186.1821 198.2151 C186.1821 198.2151 186.1821 198.2151 186.1821 198.2151 L186.1821 198.2151 L186.1821 198.2151 M176.2305 192.4678 L176.2305 195.4765 C176.2305 195.8622 176.2498 196.1129 176.2884 196.2286 L176.2884 196.2286 C176.327 196.3443 176.4619 196.4922 176.6934 196.6722 L176.6934 196.6722 C176.9248 196.8522 177.1048 196.9615 177.2334 197.0001 L177.2334 197.0001 C177.362 197.0386 177.6577 197.0579 178.1205 197.0579 L178.1205 197.0579 L182.8264 197.0579 C183.2892 197.0579 183.6042 197.0322 183.7714 196.9808 L183.7714 196.9808 C183.9385 196.9293 184.2535 196.7622 184.7164 196.4793 L184.7164 196.4793 C185.1792 196.1965 185.4492 195.9908 185.5264 195.8622 L185.5264 195.8622 C185.6035 195.7336 185.6421 195.4765 185.6421 195.0907 L185.6421 195.0907 L185.6421 192.4678 C185.6421 192.0821 185.6228 191.8314 185.5842 191.7157 L185.5842 191.7157 C185.5457 191.6 185.4107 191.4521 185.1792 191.2721 L185.1792 191.2721 C184.9478 191.0921 184.7678 190.9828 184.6392 190.9442 L184.6392 190.9442 C184.5107 190.9057 184.2149 190.8864 183.7521 190.8864 L183.7521 190.8864 L178.1205 190.8864 C177.6577 190.8864 177.362 190.9057 177.2334 190.9442 L177.2334 190.9442 C177.1048 190.9828 176.9248 191.0921 176.6934 191.2721 L176.6934 191.2721 C176.4619 191.4521 176.327 191.6 176.2884 191.7157 L176.2884 191.7157 C176.2498 191.8314 176.2305 192.0821 176.2305 192.4678 C176.2305 192.4678 176.2305 192.4678 176.2305 192.4678 L176.2305 192.4678 L176.2305 192.4678" id="text1_subtext_0" xml:space="default" style="fill:#FFFFFF;" />
      <path d="M199.6792 172.7575 L213.7966 172.7575 C214.4137 172.7575 215.0309 173.0146 215.648 173.5289 L215.648 173.5289 L216.5737 174.3004 C217.1909 174.8147 217.4995 175.4576 217.4995 176.229 L217.4995 176.229 L217.4995 196.2865 C217.4995 197.0579 217.1909 197.7008 216.5737 198.2151 L216.5737 198.2151 L215.648 198.9865 C215.0309 199.5008 214.4137 199.758 213.7966 199.758 L213.7966 199.758 L209.515 199.758 L211.5594 202.0723 C211.7908 202.3294 212.2665 202.458 212.9865 202.458 L212.9865 202.458 L217.1138 202.458 C217.448 202.7151 217.6473 202.9144 217.7116 203.0559 L217.7116 203.0559 C217.7759 203.1973 217.808 203.5637 217.808 204.1552 L217.808 204.1552 L217.808 205.1581 L211.7522 205.1581 C210.8779 205.1581 210.2608 204.9009 209.9008 204.3866 L209.9008 204.3866 L206.0436 199.758 L199.6792 199.758 C199.062 199.758 198.4449 199.5008 197.8277 198.9865 L197.8277 198.9865 L196.902 198.2151 C196.2848 197.7008 195.9763 197.0579 195.9763 196.2865 L195.9763 196.2865 L195.9763 176.229 C195.9763 175.4576 196.2848 174.8147 196.902 174.3004 L196.902 174.3004 L197.8277 173.5289 C198.4449 173.0146 199.062 172.7575 199.6792 172.7575 C199.6792 172.7575 199.6792 172.7575 199.6792 172.7575 L199.6792 172.7575 L199.6792 172.7575 M214.2594 195.4765 L214.2594 177.039 C214.2594 176.6533 214.2401 176.4026 214.2016 176.2868 L214.2016 176.2868 C214.163 176.1711 214.028 176.0233 213.7966 175.8433 L213.7966 175.8433 C213.5651 175.6633 213.3851 175.554 213.2565 175.5154 L213.2565 175.5154 C213.128 175.4768 212.8322 175.4576 212.3694 175.4576 L212.3694 175.4576 L201.1063 175.4576 C200.6435 175.4576 200.3477 175.4768 200.2192 175.5154 L200.2192 175.5154 C200.0906 175.554 199.9106 175.6633 199.6792 175.8433 L199.6792 175.8433 C199.4477 176.0233 199.3127 176.1711 199.2742 176.2868 L199.2742 176.2868 C199.2356 176.4026 199.2163 176.6533 199.2163 177.039 L199.2163 177.039 L199.2163 195.4765 C199.2163 195.8622 199.2356 196.1129 199.2742 196.2286 L199.2742 196.2286 C199.3127 196.3443 199.4477 196.4922 199.6792 196.6722 L199.6792 196.6722 C199.9106 196.8522 200.0906 196.9615 200.2192 197.0001 L200.2192 197.0001 C200.3477 197.0386 200.6435 197.0579 201.1063 197.0579 L201.1063 197.0579 L212.3694 197.0579 C212.8322 197.0579 213.128 197.0386 213.2565 197.0001 L213.2565 197.0001 C213.3851 196.9615 213.5651 196.8522 213.7966 196.6722 L213.7966 196.6722 C214.028 196.4922 214.163 196.3443 214.2016 196.2286 L214.2016 196.2286 C214.2401 196.1129 214.2594 195.8622 214.2594 195.4765 C214.2594 195.4765 214.2594 195.4765 214.2594 195.4765 L214.2594 195.4765 L214.2594 195.4765 M237.8699 187.4149 L228.6512 187.4149 C228.034 187.4149 227.4169 187.1577 226.7997 186.6434 L226.7997 186.6434 L225.7583 185.7563 C225.2183 185.3191 224.9483 184.8048 224.9483 184.2134 L224.9483 184.2134 L224.9483 176.229 C224.9483 175.4576 225.2568 174.8147 225.874 174.3004 L225.874 174.3004 L226.7997 173.5289 C227.4169 173.0146 228.034 172.7575 228.6512 172.7575 L228.6512 172.7575 L238.9113 172.7575 C239.5285 172.7575 240.1457 173.0146 240.7628 173.5289 L240.7628 173.5289 L241.6885 174.3004 C242.3057 174.8147 242.6143 175.4576 242.6143 176.229 L242.6143 176.229 L242.6143 177.7719 L239.3742 177.7719 L239.3742 177.039 C239.3742 176.6533 239.3549 176.4026 239.3164 176.2868 L239.3164 176.2868 C239.2778 176.1711 239.1428 176.0233 238.9113 175.8433 L238.9113 175.8433 C238.6799 175.6633 238.4999 175.554 238.3713 175.5154 L238.3713 175.5154 C238.2428 175.4768 237.9471 175.4576 237.4842 175.4576 L237.4842 175.4576 L230.0783 175.4576 C229.6155 175.4576 229.3198 175.4768 229.1912 175.5154 L229.1912 175.5154 C229.0626 175.554 228.8826 175.6633 228.6512 175.8433 L228.6512 175.8433 C228.4197 176.0233 228.2847 176.1711 228.2462 176.2868 L228.2462 176.2868 C228.2076 176.4026 228.1883 176.6533 228.1883 177.039 L228.1883 177.039 L228.1883 183.1334 C228.1883 183.5191 228.2076 183.7698 228.2462 183.8855 L228.2462 183.8855 C228.2847 184.0013 228.4197 184.1491 228.6512 184.3291 L228.6512 184.3291 C228.8826 184.5091 229.0626 184.6184 229.1912 184.657 L229.1912 184.657 C229.3198 184.6956 229.6155 184.7148 230.0783 184.7148 L230.0783 184.7148 L239.2971 184.7148 C239.9142 184.7148 240.5314 184.972 241.1485 185.4863 L241.1485 185.4863 L242.0743 186.2577 C242.6914 186.772 243 187.4149 243 188.1863 L243 188.1863 L243 196.2865 C243 197.0579 242.6914 197.7008 242.0743 198.2151 L242.0743 198.2151 L241.1485 198.9865 C240.5314 199.5008 239.9142 199.758 239.2971 199.758 L239.2971 199.758 L228.2655 199.758 C227.6483 199.758 227.0311 199.5008 226.414 198.9865 L226.414 198.9865 L225.4883 198.2151 C224.8711 197.7008 224.5625 197.0579 224.5625 196.2865 L224.5625 196.2865 L224.5625 194.7436 L227.8026 194.7436 L227.8026 195.4765 C227.8026 195.8622 227.8219 196.1129 227.8604 196.2286 L227.8604 196.2286 C227.899 196.3443 228.034 196.4922 228.2655 196.6722 L228.2655 196.6722 C228.4969 196.8522 228.6769 196.9615 228.8055 197.0001 L228.8055 197.0001 C228.934 197.0386 229.2298 197.0579 229.6926 197.0579 L229.6926 197.0579 L237.8699 197.0579 C238.3328 197.0579 238.6285 197.0386 238.7571 197.0001 L238.7571 197.0001 C238.8856 196.9615 239.0656 196.8522 239.2971 196.6722 L239.2971 196.6722 C239.5285 196.4922 239.6635 196.3443 239.7021 196.2286 L239.7021 196.2286 C239.7406 196.1129 239.7599 195.8622 239.7599 195.4765 L239.7599 195.4765 L239.7599 188.9963 C239.7599 188.6106 239.7406 188.3599 239.7021 188.2442 L239.7021 188.2442 C239.6635 188.1285 239.5285 187.9806 239.2971 187.8006 L239.2971 187.8006 C239.0656 187.6206 238.8856 187.5113 238.7571 187.4727 L238.7571 187.4727 C238.6285 187.4342 238.3328 187.4149 237.8699 187.4149 C237.8699 187.4149 237.8699 187.4149 237.8699 187.4149 L237.8699 187.4149 L237.8699 187.4149" id="text1_subtext_1" xml:space="default" style="fill:#FFFFFF;" />
    </g>
    <text text-anchor="middle" xml:space="default" x="0 " dx="" y="0 " dy="" font-family="serif" font-size="12" id="text2" scale-basedon="baseline" pos-basedon="baseline-nocollision" style="fill:#ADD8E6;" />
    <g id="icon" xml:space="default" scaleStrokeWidth="true" considerStrokeBounds="true" style="fill:#FFFFFF;">
      <g id="g4537" xml:space="default">
        <path d="M149.9838 94.84194 L131.0188 104.6493 L131.035 124.2404 L150.1915 162.7288 L168.9812 124.2153 L168.965 104.6257 L149.9838 94.84194 L149.9838 94.84194 M150 97.83257 L166.1555 106.1726 L166.1555 122.8541 L150 131.1941 L133.8459 122.8541 L133.8459 106.1726 L150 97.83257 L150 97.83257 L150 97.83257 M151.734 103.7535 L146.258 124.7487 L148.266 125.2717 L153.742 104.278 L151.734 103.7535 L151.734 103.7535 L151.734 103.7535 M144.0687 107.8152 L137.9533 114.5126 L144.0687 121.2114 L145.6009 119.8118 L140.7628 114.5126 L145.6009 109.2148 L144.0687 107.8152 L144.0687 107.8152 L144.0687 107.8152 M155.9313 107.8152 L154.3991 109.2148 L159.2372 114.5126 L154.3991 119.8118 L155.9313 121.2114 L162.0466 114.5126 L155.9313 107.8152 L155.9313 107.8152 L155.9313 107.8152" stroke-width="10" stroke-linecap="round" stroke-linejoin="round" id="path2" xml:space="default" />
      </g>
    </g>
  </g>
</svg>